<mxfile host="app.diagrams.net" modified="2023-06-07T14:00:59.629Z" agent="Mozilla/5.0 (Windows NT 10.0; Win64; x64; rv:109.0) Gecko/20100101 Firefox/114.0" etag="slZk0jYg8xJivYwFy34r" version="21.3.7" type="device">
  <diagram id="_cWBpqhIs8XibLYu3OOR" name="Page-1">
    <mxGraphModel dx="794" dy="462" grid="1" gridSize="10" guides="1" tooltips="1" connect="1" arrows="1" fold="1" page="1" pageScale="1" pageWidth="827" pageHeight="1169" math="1" shadow="0">
      <root>
        <mxCell id="0" />
        <mxCell id="1" parent="0" />
        <mxCell id="suMVFOb47IqiLw7vqq-X-1" value="" style="rounded=1;whiteSpace=wrap;html=1;fillColor=#dae8fc;strokeColor=#6c8ebf;" parent="1" vertex="1">
          <mxGeometry x="340" y="110" width="360" height="60" as="geometry" />
        </mxCell>
        <mxCell id="suMVFOb47IqiLw7vqq-X-5" value="" style="endArrow=none;html=1;rounded=0;labelPosition=left;verticalLabelPosition=top;align=right;verticalAlign=bottom;dashed=1;" parent="1" edge="1">
          <mxGeometry width="50" height="50" relative="1" as="geometry">
            <mxPoint x="390" y="190" as="sourcePoint" />
            <mxPoint x="390" y="90" as="targetPoint" />
          </mxGeometry>
        </mxCell>
        <mxCell id="suMVFOb47IqiLw7vqq-X-6" value="" style="endArrow=none;html=1;rounded=0;labelPosition=left;verticalLabelPosition=top;align=right;verticalAlign=bottom;dashed=1;" parent="1" edge="1">
          <mxGeometry width="50" height="50" relative="1" as="geometry">
            <mxPoint x="640" y="190" as="sourcePoint" />
            <mxPoint x="640" y="90" as="targetPoint" />
          </mxGeometry>
        </mxCell>
        <mxCell id="suMVFOb47IqiLw7vqq-X-8" value="" style="group" parent="1" vertex="1" connectable="0">
          <mxGeometry x="506" y="90" width="30" height="80" as="geometry" />
        </mxCell>
        <mxCell id="suMVFOb47IqiLw7vqq-X-2" value="" style="endArrow=none;html=1;rounded=0;labelPosition=left;verticalLabelPosition=top;align=right;verticalAlign=bottom;" parent="suMVFOb47IqiLw7vqq-X-8" edge="1">
          <mxGeometry width="50" height="50" relative="1" as="geometry">
            <mxPoint x="14" y="80" as="sourcePoint" />
            <mxPoint x="14" y="20" as="targetPoint" />
          </mxGeometry>
        </mxCell>
        <mxCell id="suMVFOb47IqiLw7vqq-X-4" value="`c`" style="text;html=1;strokeColor=none;fillColor=none;align=center;verticalAlign=middle;whiteSpace=wrap;rounded=0;fontStyle=1" parent="suMVFOb47IqiLw7vqq-X-8" vertex="1">
          <mxGeometry width="30" height="10" as="geometry" />
        </mxCell>
        <mxCell id="suMVFOb47IqiLw7vqq-X-9" value="" style="group" parent="1" vertex="1" connectable="0">
          <mxGeometry x="546" y="90" width="30" height="80" as="geometry" />
        </mxCell>
        <mxCell id="suMVFOb47IqiLw7vqq-X-10" value="" style="endArrow=none;html=1;rounded=0;labelPosition=left;verticalLabelPosition=top;align=right;verticalAlign=bottom;" parent="suMVFOb47IqiLw7vqq-X-9" edge="1">
          <mxGeometry width="50" height="50" relative="1" as="geometry">
            <mxPoint x="14" y="80" as="sourcePoint" />
            <mxPoint x="14" y="20" as="targetPoint" />
          </mxGeometry>
        </mxCell>
        <mxCell id="suMVFOb47IqiLw7vqq-X-11" value="`c_2`" style="text;html=1;strokeColor=none;fillColor=none;align=center;verticalAlign=middle;whiteSpace=wrap;rounded=0;" parent="suMVFOb47IqiLw7vqq-X-9" vertex="1">
          <mxGeometry width="30" height="10" as="geometry" />
        </mxCell>
        <mxCell id="suMVFOb47IqiLw7vqq-X-12" value="" style="group" parent="1" vertex="1" connectable="0">
          <mxGeometry x="587" y="90" width="30" height="80" as="geometry" />
        </mxCell>
        <mxCell id="suMVFOb47IqiLw7vqq-X-13" value="" style="endArrow=none;html=1;rounded=0;labelPosition=left;verticalLabelPosition=top;align=right;verticalAlign=bottom;" parent="suMVFOb47IqiLw7vqq-X-12" edge="1">
          <mxGeometry width="50" height="50" relative="1" as="geometry">
            <mxPoint x="14" y="80" as="sourcePoint" />
            <mxPoint x="14" y="20" as="targetPoint" />
          </mxGeometry>
        </mxCell>
        <mxCell id="suMVFOb47IqiLw7vqq-X-14" value="`c_3`" style="text;html=1;strokeColor=none;fillColor=none;align=center;verticalAlign=middle;whiteSpace=wrap;rounded=0;" parent="suMVFOb47IqiLw7vqq-X-12" vertex="1">
          <mxGeometry width="30" height="10" as="geometry" />
        </mxCell>
        <mxCell id="suMVFOb47IqiLw7vqq-X-18" value="" style="group" parent="1" vertex="1" connectable="0">
          <mxGeometry x="414" y="90" width="30" height="80" as="geometry" />
        </mxCell>
        <mxCell id="suMVFOb47IqiLw7vqq-X-19" value="" style="endArrow=none;html=1;rounded=0;labelPosition=left;verticalLabelPosition=top;align=right;verticalAlign=bottom;" parent="suMVFOb47IqiLw7vqq-X-18" edge="1">
          <mxGeometry width="50" height="50" relative="1" as="geometry">
            <mxPoint x="14" y="80" as="sourcePoint" />
            <mxPoint x="14" y="20" as="targetPoint" />
          </mxGeometry>
        </mxCell>
        <mxCell id="suMVFOb47IqiLw7vqq-X-20" value="`c_3`" style="text;html=1;strokeColor=none;fillColor=none;align=center;verticalAlign=middle;whiteSpace=wrap;rounded=0;" parent="suMVFOb47IqiLw7vqq-X-18" vertex="1">
          <mxGeometry width="30" height="10" as="geometry" />
        </mxCell>
        <mxCell id="suMVFOb47IqiLw7vqq-X-21" value="" style="group" parent="1" vertex="1" connectable="0">
          <mxGeometry x="653" y="90" width="30" height="80" as="geometry" />
        </mxCell>
        <mxCell id="suMVFOb47IqiLw7vqq-X-22" value="" style="endArrow=none;html=1;rounded=0;labelPosition=left;verticalLabelPosition=top;align=right;verticalAlign=bottom;" parent="suMVFOb47IqiLw7vqq-X-21" edge="1">
          <mxGeometry width="50" height="50" relative="1" as="geometry">
            <mxPoint x="14" y="80" as="sourcePoint" />
            <mxPoint x="14" y="20" as="targetPoint" />
          </mxGeometry>
        </mxCell>
        <mxCell id="suMVFOb47IqiLw7vqq-X-23" value="`c_4`" style="text;html=1;strokeColor=none;fillColor=none;align=center;verticalAlign=middle;whiteSpace=wrap;rounded=0;" parent="suMVFOb47IqiLw7vqq-X-21" vertex="1">
          <mxGeometry width="30" height="10" as="geometry" />
        </mxCell>
        <mxCell id="suMVFOb47IqiLw7vqq-X-24" value="" style="group" parent="1" vertex="1" connectable="0">
          <mxGeometry x="470" y="91" width="30" height="80" as="geometry" />
        </mxCell>
        <mxCell id="suMVFOb47IqiLw7vqq-X-25" value="" style="endArrow=none;html=1;rounded=0;labelPosition=left;verticalLabelPosition=top;align=right;verticalAlign=bottom;" parent="suMVFOb47IqiLw7vqq-X-24" edge="1">
          <mxGeometry width="50" height="50" relative="1" as="geometry">
            <mxPoint x="14" y="80" as="sourcePoint" />
            <mxPoint x="14" y="20" as="targetPoint" />
          </mxGeometry>
        </mxCell>
        <mxCell id="suMVFOb47IqiLw7vqq-X-26" value="`c_1`" style="text;html=1;strokeColor=none;fillColor=none;align=center;verticalAlign=middle;whiteSpace=wrap;rounded=0;" parent="suMVFOb47IqiLw7vqq-X-24" vertex="1">
          <mxGeometry width="30" height="10" as="geometry" />
        </mxCell>
        <mxCell id="suMVFOb47IqiLw7vqq-X-27" value="" style="endArrow=classic;startArrow=classic;html=1;rounded=0;dashed=1;" parent="1" edge="1">
          <mxGeometry width="50" height="50" relative="1" as="geometry">
            <mxPoint x="390" y="200" as="sourcePoint" />
            <mxPoint x="640" y="200" as="targetPoint" />
          </mxGeometry>
        </mxCell>
        <mxCell id="suMVFOb47IqiLw7vqq-X-28" value="context window" style="edgeLabel;html=1;align=center;verticalAlign=middle;resizable=0;points=[];" parent="suMVFOb47IqiLw7vqq-X-27" vertex="1" connectable="0">
          <mxGeometry x="-0.0844" y="1" relative="1" as="geometry">
            <mxPoint y="11" as="offset" />
          </mxGeometry>
        </mxCell>
        <mxCell id="suMVFOb47IqiLw7vqq-X-29" value="&lt;div&gt;Patient &lt;br&gt;&lt;/div&gt;&lt;div&gt;event&lt;/div&gt;&lt;div&gt;sequence&lt;/div&gt;" style="text;html=1;strokeColor=none;fillColor=none;align=center;verticalAlign=middle;whiteSpace=wrap;rounded=0;" parent="1" vertex="1">
          <mxGeometry x="278" y="125" width="60" height="30" as="geometry" />
        </mxCell>
        <mxCell id="suMVFOb47IqiLw7vqq-X-30" value="" style="endArrow=classic;html=1;rounded=0;fillColor=#dae8fc;strokeColor=#6c8ebf;" parent="1" edge="1">
          <mxGeometry width="50" height="50" relative="1" as="geometry">
            <mxPoint x="340" y="160" as="sourcePoint" />
            <mxPoint x="725" y="160" as="targetPoint" />
          </mxGeometry>
        </mxCell>
        <mxCell id="suMVFOb47IqiLw7vqq-X-31" value="Time" style="edgeLabel;html=1;align=center;verticalAlign=middle;resizable=0;points=[];fontColor=#7EA6E0;container=1;fontStyle=1" parent="suMVFOb47IqiLw7vqq-X-30" vertex="1" connectable="0">
          <mxGeometry x="0.9623" y="4" relative="1" as="geometry">
            <mxPoint y="15" as="offset" />
          </mxGeometry>
        </mxCell>
        <mxCell id="suMVFOb47IqiLw7vqq-X-32" value="update" style="triangle;whiteSpace=wrap;html=1;fontColor=#333333;fillColor=#666666;strokeColor=none;verticalAlign=bottom;labelPosition=center;verticalLabelPosition=top;align=center;fontStyle=2" parent="1" vertex="1">
          <mxGeometry x="746" y="115" width="30" height="50" as="geometry" />
        </mxCell>
        <mxCell id="suMVFOb47IqiLw7vqq-X-33" value="`P(c,c_1) \ +=&amp;nbsp; 1` " style="text;html=1;strokeColor=none;fillColor=none;align=center;verticalAlign=middle;whiteSpace=wrap;rounded=0;fontColor=#000000;fontStyle=0" parent="1" vertex="1">
          <mxGeometry x="799" y="79.5" width="95" height="30" as="geometry" />
        </mxCell>
        <mxCell id="suMVFOb47IqiLw7vqq-X-34" value="`P(c,c_2) \ +=&amp;nbsp; 1` " style="text;html=1;strokeColor=none;fillColor=none;align=center;verticalAlign=middle;whiteSpace=wrap;rounded=0;fontColor=#000000;fontStyle=0" parent="1" vertex="1">
          <mxGeometry x="799" y="109.5" width="95" height="30" as="geometry" />
        </mxCell>
        <mxCell id="suMVFOb47IqiLw7vqq-X-35" value="`P(c,c_3) \ +=&amp;nbsp; 2` " style="text;html=1;strokeColor=none;fillColor=none;align=center;verticalAlign=middle;whiteSpace=wrap;rounded=0;fontColor=#000000;fontStyle=0" parent="1" vertex="1">
          <mxGeometry x="799" y="139.5" width="95" height="30" as="geometry" />
        </mxCell>
        <mxCell id="suMVFOb47IqiLw7vqq-X-36" value="`P(c,c_4) \ +=&amp;nbsp; 0` " style="text;html=1;strokeColor=none;fillColor=none;align=center;verticalAlign=middle;whiteSpace=wrap;rounded=0;fontColor=#000000;fontStyle=0" parent="1" vertex="1">
          <mxGeometry x="799" y="170.5" width="95" height="30" as="geometry" />
        </mxCell>
      </root>
    </mxGraphModel>
  </diagram>
</mxfile>
